<svg xmlns="http://www.w3.org/2000/svg" viewBox="0 0 793.746 165.973" role="img" aria-label="DUMA">
  <g fill="#e30613" fill-rule="nonzero">
    <path d="M486.891 98.001c0 11.813-9.612 21.423-21.424 21.423s-21.424-9.61-21.424-21.423V60.973h-22.675v37.028c0 24.317 19.783 44.1 44.099 44.1 24.317 0 44.1-19.783 44.1-44.1V60.973h-22.676z"/>
    <path d="M367.894 61.061h-41.201v22.677h41.201c9.721 0 17.629 7.908 17.629 17.628s-7.908 17.629-17.629 17.629h-18.546V89.751h-22.676v51.92h41.222c22.225 0 40.305-18.081 40.305-40.305s-18.08-40.305-40.305-40.305"/>
    <path d="M243.224 59.019c-14.618-.694-28.598 6.498-36.536 18.767-.406.593-2.077 3.005-4.656 6.723l-11.811-10.306-15.438 22.362 11.755 10.26c-11.715 16.871-26.187 37.704-36.821 53.008h32.877c10.208-14.693 46.64-67.188 46.727-67.323 2.768-4.326 7.5-6.755 12.631-6.521 7.081.334 12.971 6.132 13.411 13.2.246 3.969-1.105 7.736-3.805 10.608-2.703 2.877-6.365 4.462-10.31 4.462-3.908 0-7.545-1.56-10.243-4.391l-.899-.861-3.037-2.65-15.439 22.362.302.263c7.695 7.811 18.34 12.277 29.316 12.277 11.309 0 22.239-4.728 29.985-12.971 7.857-8.36 11.791-19.289 11.077-30.772-1.3-20.957-18.104-37.507-39.086-38.497"/>
    <path d="M123.58 112.627c-9.406 12.743-24.443 20.346-40.262 20.346-27.135 0-49.562-22.065-49.994-49.187-.212-13.367 4.887-26.055 14.358-35.725 9.461-9.663 22.025-15.02 35.377-15.088h.262c11.077 0 21.545 3.535 30.313 10.235l36.12 31.519zm73.635-106.627-32.02 46.366-34.121-29.775-.602-.496C117.226 11.823 101.432 6.287 84.694 6h-2.669C61.743 6.335 42.726 14.531 28.391 29.169 13.836 44.032 6 63.581 6.328 84.215c.322 20.308 8.475 39.348 22.953 53.612 14.496 14.281 33.687 22.146 54.037 22.146 24.449 0 47.682-11.787 62.147-31.531L230.028 6z"/>
    <path d="M618.325 60.493c-8.705 0-16.754 2.865-23.256 7.699 5.377 5.532 9.366 12.417 11.392 20.095 2.987-3.144 7.195-5.117 11.864-5.117 9.586 0 17.384 7.798 17.384 17.384v40.184h22.678v-40.184c0-22.09-17.972-40.061-40.062-40.061"/>
    <path d="M562.88 60.493c-22.09 0-40.062 17.971-40.062 40.061v40.184h22.678v-40.184c0-9.586 7.798-17.384 17.384-17.384 9.034 0 16.384 7.35 16.384 16.384v41.184h22.678V99.554c0-21.539-17.524-39.061-39.062-39.061"/>
    <path d="m760.095 99.316 16.104-26.649h-26.491l-22.963 38.003c-.879 1.455-1.916 2.823-3.183 3.957-.498.445-1.001.842-1.508 1.187-3.278 2.235-7.125 3.325-11.138 3.14-9.156-.416-16.786-7.896-17.37-17.03-.328-5.129 1.413-10.002 4.903-13.722 3.494-3.725 8.228-5.776 13.332-5.776 6.092 0 11.765 3.024 15.151 8.055l2.756 3.707 12.57-20.819c-7.714-8.607-18.741-13.62-30.477-13.62-11.27 0-22.158 4.716-29.871 12.938-7.822 8.338-11.727 19.236-10.995 30.685 1.334 20.85 18.089 37.288 38.974 38.235 8.956.414 17.578-2.036 24.942-7.059 3.36-2.292 6.465-5.264 9.232-8.835l.741-1.081 2.34-3.873 13.337 19.979h27.265z"/>
  </g>
</svg>
